<svg xmlns="http://www.w3.org/2000/svg" viewBox="0 0 64 64"><path d="M20.125 32c0-6.563 5.311-11.875 11.875-11.875.66 0 1.312.054 1.951.159L43.909 5.13A29.3 29.3 0 0 0 32 2.625C15.765 2.625 2.625 15.763 2.625 32c0 4.258.902 8.378 2.612 12.142l15.095-9.92A12.046 12.046 0 0 1 20.125 32zm14.864-3.967c-.654 0-1.269.255-1.732.718l-.815.815a.625.625 0 0 1-.884 0l-.815-.815c-.463-.463-1.078-.718-1.732-.718s-1.269.255-1.732.718a2.434 2.434 0 0 0-.718 1.732c0 .652.253 1.264.712 1.726l4.132 3.912.012.012a.824.824 0 0 0 1.166 0l.012-.012 4.132-3.912a2.434 2.434 0 0 0 .712-1.726c0-.654-.255-1.27-.718-1.732a2.43 2.43 0 0 0-1.732-.718zm23.881-7.942-15.154 9.958c.105.639.159 1.291.159 1.951 0 6.592-5.337 11.869-11.875 11.869-.743 0-1.486-.07-2.218-.208l-9.924 15.102A29.288 29.288 0 0 0 32 61.375c7.846 0 15.223-3.056 20.771-8.604 5.548-5.548 8.604-12.925 8.604-20.771a29.3 29.3 0 0 0-2.505-11.909zM20.65 35.509l-14.867 9.77a29.432 29.432 0 0 0 5.446 7.492 29.432 29.432 0 0 0 7.492 5.446l9.775-14.875a11.876 11.876 0 0 1-7.846-7.833zm22.775-6.765 14.907-9.796a29.439 29.439 0 0 0-5.56-7.72 29.416 29.416 0 0 0-7.72-5.56l-9.796 14.907c3.871 1.097 7.037 4.174 8.169 8.169z"/><path d="M32 21.38c-5.851 0-10.625 4.723-10.625 10.62 0 2.838 1.105 5.506 3.112 7.513C31.139 46.165 42.625 41.44 42.625 32c0-.713-.07-1.416-.207-2.1-.004-.015-.008-.03-.01-.045A10.616 10.616 0 0 0 32 21.38zm5.606 11.719-.012.012-4.133 3.913c-.404.4-.932.6-1.461.6s-1.057-.2-1.461-.6l-4.133-3.913-.012-.012a3.676 3.676 0 0 1-1.084-2.616c0-.988.385-1.917 1.084-2.616.699-.699 1.628-1.084 2.616-1.084s1.917.385 2.616 1.084l.374.373.373-.373c.699-.699 1.628-1.084 2.616-1.084s1.917.385 2.616 1.084a3.676 3.676 0 0 1 1.084 2.616c0 .988-.385 1.917-1.083 2.616z"/></svg>